<svg width="334" height="456" viewBox="0 0 334 456" fill="none" xmlns="http://www.w3.org/2000/svg">
<g filter="url(#filter0_d_402_11)">
<path fill-rule="evenodd" clip-rule="evenodd" d="M308.73 102.114H67.5L330 448L86.5905 437.137H108.805L108.98 428.446L108.805 268.105H131.019L265 428.446H296L166.903 268.105H308.73V102.114ZM108.98 121.234L108.805 248.551H280.821V121.234H108.98Z" fill="#869D9D"/>
<path fill-rule="evenodd" clip-rule="evenodd" d="M308.73 102.114H67.5L330 448L86.5905 437.137H108.805L108.98 428.446L108.805 268.105H131.019L265 428.446H296L166.903 268.105H308.73V102.114ZM108.98 121.234L108.805 248.551H280.821V121.234H108.98Z" fill="url(#paint0_linear_402_11)"/>
<path d="M4 0V448H330L86.5905 437.137H108.805L108.98 428.446H29.0619V19.5538H308.73L330 0H4Z" fill="#869D9D"/>
<path d="M4 0V448H330L86.5905 437.137H108.805L108.98 428.446H29.0619V19.5538H308.73L330 0H4Z" fill="url(#paint1_linear_402_11)"/>
</g>
<defs>
<filter id="filter0_d_402_11" x="0" y="0" width="334" height="456" filterUnits="userSpaceOnUse" color-interpolation-filters="sRGB">
<feFlood flood-opacity="0" result="BackgroundImageFix"/>
<feColorMatrix in="SourceAlpha" type="matrix" values="0 0 0 0 0 0 0 0 0 0 0 0 0 0 0 0 0 0 127 0" result="hardAlpha"/>
<feOffset dy="4"/>
<feGaussianBlur stdDeviation="2"/>
<feColorMatrix type="matrix" values="0 0 0 0 0 0 0 0 0 0 0 0 0 0 0 0 0 0 0.25 0"/>
<feBlend mode="normal" in2="BackgroundImageFix" result="effect1_dropShadow_402_11"/>
<feBlend mode="normal" in="SourceGraphic" in2="effect1_dropShadow_402_11" result="shape"/>
</filter>
<linearGradient id="paint0_linear_402_11" x1="167" y1="7.69591e-07" x2="396.907" y2="389.912" gradientUnits="userSpaceOnUse">
<stop offset="0.00804209" stop-color="white"/>
<stop offset="0.380208" stop-color="white" stop-opacity="0.592724"/>
<stop offset="0.651554" stop-color="white" stop-opacity="0.29578"/>
<stop offset="1" stop-color="white" stop-opacity="0"/>
</linearGradient>
<linearGradient id="paint1_linear_402_11" x1="167" y1="7.69591e-07" x2="396.907" y2="389.912" gradientUnits="userSpaceOnUse">
<stop offset="0.00804209" stop-color="white"/>
<stop offset="0.380208" stop-color="white" stop-opacity="0.592724"/>
<stop offset="0.651554" stop-color="white" stop-opacity="0.29578"/>
<stop offset="1" stop-color="white" stop-opacity="0"/>
</linearGradient>
</defs>
</svg>
